<?xml version="1.0" encoding="UTF-8"?>
<svg version="1.1" xmlns="http://www.w3.org/2000/svg" width="370" height="236">
<path d="M0 0 C0.66209473 -0.00095673 1.32418945 -0.00191345 2.00634766 -0.00289917 C3.40852961 -0.00358076 4.8107147 -0.00172792 6.21289062 0.00244141 C8.36595713 0.00779004 10.51881502 0.0024958 12.671875 -0.00390625 C14.03125046 -0.00324546 15.3906258 -0.00196429 16.75 0 C18.61785156 0.00169189 18.61785156 0.00169189 20.5234375 0.00341797 C23.375 0.1328125 23.375 0.1328125 24.375 1.1328125 C24.47236248 3.04876866 24.50016109 4.96829054 24.50097656 6.88671875 C24.50668671 8.73499268 24.50668671 8.73499268 24.51251221 10.62060547 C24.51270607 11.28396912 24.51289993 11.94733276 24.51309967 12.63079834 C24.51651299 15.42126785 24.53788414 18.21150394 24.55833054 21.00189209 C24.59631237 26.19871846 24.62762807 31.39530427 24.62548828 36.59228516 C24.62469646 40.20534113 24.64827154 43.81755398 24.6873703 47.4303894 C24.69777007 48.80170897 24.69939901 50.17312661 24.69171906 51.54446411 C24.65057377 59.71398203 24.91998757 66.66084814 30.375 73.1328125 C36.61241048 78.06390318 41.87319852 79.28360114 49.75854492 79.30981445 C50.61420044 79.31638565 51.46985596 79.32295685 52.35144043 79.32972717 C55.18611744 79.3494535 58.02074143 79.36112242 60.85546875 79.37109375 C62.30921119 79.37720704 62.30921119 79.37720704 63.79232216 79.38344383 C68.9238018 79.40430355 74.05525471 79.41860468 79.18676758 79.42797852 C84.47833806 79.43903178 89.76948673 79.47341957 95.06090832 79.51315022 C99.13681298 79.53934078 103.21261761 79.54767262 107.28859901 79.55125999 C109.23856766 79.55612105 111.18853198 79.56772129 113.1384182 79.58629799 C115.87410909 79.61073725 118.60871498 79.60971553 121.34448242 79.6027832 C122.14322281 79.61559326 122.9419632 79.62840332 123.76490784 79.64160156 C128.79653539 79.59535708 132.26654744 78.57651633 136.64951038 76.08894634 C138.375 75.1328125 138.375 75.1328125 141.375 74.1328125 C142.49629012 71.9391344 142.49629012 71.9391344 143.375 69.1328125 C144.01308594 67.37517578 144.01308594 67.37517578 144.6640625 65.58203125 C145.32535156 63.71998047 145.32535156 63.71998047 146 61.8203125 C146.22945312 61.17513672 146.45890625 60.52996094 146.6953125 59.86523438 C147.2560818 58.28807071 147.81566291 56.71048466 148.375 55.1328125 C149.035 55.1328125 149.695 55.1328125 150.375 55.1328125 C151.08519737 80.7525251 151.08519737 80.7525251 142.39453125 91.08984375 C134.77237381 98.8004595 126.50522869 101.33527422 115.86853027 101.40386963 C114.93738403 101.39982117 114.00623779 101.39577271 113.046875 101.39160156 C112.04418579 101.3951062 111.04149658 101.39861084 110.00842285 101.40222168 C106.71387688 101.41098075 103.41954793 101.40521039 100.125 101.3984375 C97.82389281 101.39978582 95.5227859 101.40172775 93.22167969 101.40423584 C88.40687336 101.40717922 83.59214141 101.40291471 78.77734375 101.39355469 C72.61726968 101.38216071 66.45736992 101.38872438 60.29730225 101.40069962 C55.54800105 101.4079394 50.79874093 101.40562054 46.04943848 101.40044403 C43.77852355 101.3991134 41.50760485 101.40073463 39.23669434 101.40540314 C36.05873793 101.41050317 32.88106071 101.40270921 29.703125 101.39160156 C28.77197876 101.39565002 27.84083252 101.39969849 26.88146973 101.40386963 C14.83256411 101.32616698 6.71626801 97.56099694 -1.984375 89.3671875 C-8.57801941 80.38727178 -8.16879385 71.12193915 -8.05078125 60.4453125 C-8.04585141 58.73421612 -8.0425564 57.02311432 -8.04081726 55.31201172 C-8.03321238 51.74477628 -8.01274898 48.17794716 -7.98168945 44.61083984 C-7.94187591 40.02962179 -7.92403842 35.44866579 -7.91438007 30.86729431 C-7.90443793 26.49743139 -7.88454975 22.12763281 -7.86328125 17.7578125 C-7.8598855 16.92150299 -7.85648975 16.08519348 -7.8529911 15.22354126 C-7.84147369 12.8729066 -7.82296807 10.52244202 -7.80200195 8.171875 C-7.79931305 7.46960281 -7.79662415 6.76733063 -7.79385376 6.04377747 C-7.71891097 -0.62022385 -6.43313935 0.00582712 0 0 Z " fill="#15B6A5" transform="translate(113.625,82.8671875)"/>
<path d="M0 0 C0.97996948 -0.00335861 1.95993896 -0.00671722 2.96960449 -0.01017761 C6.18954761 -0.01962922 9.40943842 -0.02162771 12.62939453 -0.02270508 C14.88086976 -0.02592134 17.13234478 -0.02928569 19.38381958 -0.03279114 C24.09605392 -0.03876768 28.80826995 -0.04063252 33.52050781 -0.04003906 C39.54136879 -0.03993745 45.56211183 -0.05359567 51.58294487 -0.07081127 C56.2310947 -0.08196007 60.87921625 -0.08395739 65.52737808 -0.08342934 C67.74640434 -0.08460487 69.96543143 -0.08900258 72.18444443 -0.0967617 C75.29492077 -0.10662116 78.40514409 -0.10366024 81.515625 -0.09765625 C82.42087921 -0.10327576 83.32613342 -0.10889526 84.25881958 -0.11468506 C94.30681391 -0.06570229 102.39627768 1.0544908 109.88720703 8.14526367 C111.99951996 10.39749476 113.98675724 12.71211204 115.88720703 15.14526367 C115.55720703 15.80526367 115.22720703 16.46526367 114.88720703 17.14526367 C113.01918175 17.13527092 113.01918175 17.13527092 111.11341858 17.12507629 C99.35804983 17.06417315 87.60271324 17.01924679 75.84722233 16.98982716 C69.80408701 16.97419362 63.76107941 16.95299736 57.71801758 16.91894531 C51.88249397 16.88626975 46.04709296 16.86839327 40.21148491 16.86063194 C37.98882557 16.85510317 35.76617268 16.84430688 33.54356575 16.8280735 C30.42237141 16.80619057 27.30167905 16.80330132 24.18041992 16.8046875 C23.26835281 16.79390167 22.35628571 16.78311584 21.4165802 16.77200317 C12.97745599 16.81236832 5.54795204 18.58000627 -0.67529297 24.50073242 C-6.09200588 30.69756974 -5.77038379 38.29346698 -6.11279297 46.14526367 C-9.54614866 46.91976842 -12.72060682 47.27348283 -16.23779297 47.27807617 C-17.66865234 47.28000977 -17.66865234 47.28000977 -19.12841797 47.28198242 C-20.11326172 47.27811523 -21.09810547 47.27424805 -22.11279297 47.27026367 C-23.09763672 47.27413086 -24.08248047 47.27799805 -25.09716797 47.28198242 C-26.05107422 47.28069336 -27.00498047 47.2794043 -27.98779297 47.27807617 C-28.85146484 47.27694824 -29.71513672 47.27582031 -30.60498047 47.2746582 C-33.19257467 47.14114721 -35.58825377 46.71475538 -38.11279297 46.14526367 C-39.39421846 20.29332578 -39.39421846 20.29332578 -32.11279297 11.14526367 C-22.89342541 1.02956872 -12.99212909 -0.00647513 0 0 Z " fill="#15B7A6" transform="translate(144.11279296875,32.854736328125)"/>
<path d="M0 0 C3.4388934 0.60313786 5.35440242 1.84873761 8.00390625 4.08984375 C8.74447266 4.70923828 9.48503906 5.32863281 10.24804688 5.96679688 C11.01181641 6.61712891 11.77558594 7.26746094 12.5625 7.9375 C14.08369101 9.21857018 15.60578984 10.49856336 17.12890625 11.77734375 C17.79994385 12.34702881 18.47098145 12.91671387 19.16235352 13.50366211 C21.13735015 15.16034675 21.13735015 15.16034675 24 17 C24.26464844 19.01196289 24.26464844 19.01196289 24.109375 21.47265625 C24.05910156 22.37306641 24.00882813 23.27347656 23.95703125 24.20117188 C23.88871094 25.14541016 23.82039063 26.08964844 23.75 27.0625 C23.69714844 27.97966797 23.64429688 28.89683594 23.58984375 29.84179688 C23.23975544 35.58568766 22.67840669 41.28617817 22 47 C18.16292097 47.97606079 15.25705073 47.93212509 11.3671875 47.2578125 C10.31402344 47.07863281 9.26085937 46.89945313 8.17578125 46.71484375 C7.08652344 46.52019531 5.99726563 46.32554687 4.875 46.125 C3.22951172 45.84462891 3.22951172 45.84462891 1.55078125 45.55859375 C-6.50566008 44.16477997 -6.50566008 44.16477997 -10 43 C-11.62573242 40.62329102 -11.62573242 40.62329102 -13.35546875 37.50390625 C-13.97744141 36.38822266 -14.59941406 35.27253906 -15.24023438 34.12304688 C-15.55951904 33.539021 -15.87880371 32.95499512 -16.20776367 32.35327148 C-17.18479001 30.56745334 -18.17604471 28.7901566 -19.16992188 27.01367188 C-24 18.28528252 -24 18.28528252 -24 16 C-23.28714844 16.03480469 -22.57429687 16.06960937 -21.83984375 16.10546875 C-14.42848902 16.31494176 -9.83882631 15.69755362 -3.6875 11.375 C-1.20904169 7.88679941 -0.67758914 4.17252258 0 0 Z " fill="#3090AD" transform="translate(202,104)"/>
<path d="M0 0 C4.42022945 0.89471132 6.61536474 1.29824887 11 -0.0625 C15.67105504 -1.2944266 18.82955952 -0.39853444 23.375 1.0625 C23.045 3.7025 22.715 6.3425 22.375 9.0625 C17.425 8.0725 17.425 8.0725 12.375 7.0625 C12.375 8.0525 12.375 9.0425 12.375 10.0625 C13.4475 10.145 14.52 10.2275 15.625 10.3125 C19.375 11.0625 19.375 11.0625 21.8125 12.5 C24.28088575 16.54815263 24.08677394 20.45510312 23.375 25.0625 C22.0625 27.6875 22.0625 27.6875 19.375 29.0625 C14.62290843 29.61812917 10.15783786 29.83218331 5.71484375 27.9140625 C4.94269531 27.63304687 4.17054688 27.35203125 3.375 27.0625 C2.385 27.7225 1.395 28.3825 0.375 29.0625 C-1.7097168 29.28955078 -1.7097168 29.28955078 -4.07421875 29.2578125 C-5.34555664 29.24814453 -5.34555664 29.24814453 -6.64257812 29.23828125 C-7.52365234 29.22152344 -8.40472656 29.20476562 -9.3125 29.1875 C-10.20517578 29.17847656 -11.09785156 29.16945312 -12.01757812 29.16015625 C-14.22032314 29.13659748 -16.42252588 29.10370329 -18.625 29.0625 C-19.285 27.4125 -19.945 25.7625 -20.625 24.0625 C-22.935 23.7325 -25.245 23.4025 -27.625 23.0625 C-28.285 25.0425 -28.945 27.0225 -29.625 29.0625 C-31.605 29.0625 -33.585 29.0625 -35.625 29.0625 C-35.14127271 23.62056794 -33.61443628 19.02268156 -31.67578125 13.92578125 C-30.35147426 10.31716778 -29.28230634 6.65876938 -28.23828125 2.9609375 C-27.625 1.0625 -27.625 1.0625 -26.625 0.0625 C-24.62541636 0.02169217 -22.62454746 0.01995644 -20.625 0.0625 C-18.39475295 5.86114232 -16.40130428 11.70875148 -14.4921875 17.62109375 C-13.85144161 19.97927302 -13.85144161 19.97927302 -12.625 21.0625 C-10.94316052 21.29537008 -9.2537584 21.47514166 -7.5625 21.625 C-6.64339844 21.70878906 -5.72429687 21.79257813 -4.77734375 21.87890625 C-3.71193359 21.96978516 -3.71193359 21.96978516 -2.625 22.0625 C-3.28175972 19.00552301 -3.28175972 19.00552301 -5.40234375 18 C-6.11519531 17.690625 -6.82804687 17.38125 -7.5625 17.0625 C-10.83116298 15.63876295 -11.54124972 15.18812542 -13.625 12.0625 C-14.08431923 7.92862691 -14.05794883 5.77377308 -11.875 2.1875 C-7.98653816 -1.48493619 -5.06744367 -1.04490415 0 0 Z M-5.625 7.0625 C-5.625 8.0525 -5.625 9.0425 -5.625 10.0625 C-1.17 11.0525 -1.17 11.0525 3.375 12.0625 C3.705 10.7425 4.035 9.4225 4.375 8.0625 C1.075 7.7325 -2.225 7.4025 -5.625 7.0625 Z M4.375 13.0625 C5.035 15.7025 5.695 18.3425 6.375 21.0625 C9.675 21.3925 12.975 21.7225 16.375 22.0625 C16.375 21.0725 16.375 20.0825 16.375 19.0625 C15.76011719 18.79695313 15.14523437 18.53140625 14.51171875 18.2578125 C13.70347656 17.90460938 12.89523437 17.55140625 12.0625 17.1875 C11.26199219 16.83945313 10.46148437 16.49140625 9.63671875 16.1328125 C7.375 15.0625 7.375 15.0625 4.375 13.0625 Z " fill="#348FAB" transform="translate(270.625,195.9375)"/>
<path d="M0 0 C0.33 0.99 0.66 1.98 1 3 C0.34 4.32 -0.32 5.64 -1 7 C-3.97 7 -6.94 7 -10 7 C-10 11.29 -10 15.58 -10 20 C-6.7 20 -3.4 20 0 20 C-0.17789063 19.2884375 -0.35578125 18.576875 -0.5390625 17.84375 C-1.52044317 11.78913028 -0.3204006 5.83388972 3.25 0.875 C6.43264697 -1.29498657 8.14514116 -2 12 -2 C15.77367496 -0.84870933 18.22156686 0.01074122 20.6875 3.14453125 C22.35979219 6.78276218 22.36403637 9.57041376 22.3125 13.5625 C22.30863281 14.86316406 22.30476563 16.16382813 22.30078125 17.50390625 C22.02740361 20.68147751 21.75885471 22.40183216 20 25 C16.49991157 27.88242577 13.50278929 28.44380515 8.984375 28.31640625 C7 28 7 28 3.8125 26.3125 C2.884375 25.879375 1.95625 25.44625 1 25 C-0.70116376 25.94011682 -2.36504293 26.94895617 -4 28 C-8.00726546 28.66242552 -11.1507958 28.36921922 -14.875 26.75 C-17.22888445 24.81150692 -17.93351381 23.83300075 -19 21 C-19.30078125 17.50390625 -19.30078125 17.50390625 -19.3125 13.5625 C-19.32925781 12.26441406 -19.34601563 10.96632812 -19.36328125 9.62890625 C-18.98243019 5.82449078 -18.33013704 3.98735518 -16 1 C-10.59791291 -2.349294 -5.89417018 -2.70676485 0 0 Z M9 6 C7.66098208 7.11126659 7.66098208 7.11126659 7.90234375 9.94140625 C7.91394531 11.13636719 7.92554688 12.33132812 7.9375 13.5625 C7.94652344 14.76003906 7.95554688 15.95757812 7.96484375 17.19140625 C7.97644531 18.11824219 7.98804688 19.04507813 8 20 C9.65614657 20.38218767 11.32457024 20.71395102 13 21 C14.71906647 19.28093353 14.45036917 16.97167136 14.6875 14.625 C14.79449219 13.64789063 14.90148437 12.67078125 15.01171875 11.6640625 C15.24365171 8.76852317 15.24365171 8.76852317 13 6 C11.68 6 10.36 6 9 6 Z " fill="#358CA8" transform="translate(164,197)"/>
<path d="M0 0 C2.31 0 4.62 0 7 0 C7.84026396 1.76755526 8.67198722 3.53917263 9.5 5.3125 C9.9640625 6.29863281 10.428125 7.28476563 10.90625 8.30078125 C12 11 12 11 12 14 C12.66 14 13.32 14 14 14 C14.0825 13.360625 14.165 12.72125 14.25 12.0625 C15.29520372 7.79458483 17.14091826 3.96892333 19 0 C21.31 0 23.62 0 26 0 C26.81024093 3.55476111 27.12839888 6.84124443 27.1328125 10.484375 C27.13474609 12.00998047 27.13474609 12.00998047 27.13671875 13.56640625 C27.13285156 14.61699219 27.12898438 15.66757813 27.125 16.75 C27.13080078 18.34908203 27.13080078 18.34908203 27.13671875 19.98046875 C27.13542969 20.99238281 27.13414062 22.00429687 27.1328125 23.046875 C27.13168457 23.97338867 27.13055664 24.89990234 27.12939453 25.85449219 C27 28 27 28 26 29 C23.66702567 29.04092937 21.33294775 29.04241723 19 29 C18.67 27.02 18.34 25.04 18 23 C17.34 23.99 16.68 24.98 16 26 C11.94554358 26.43132515 10.45029042 26.30019361 7 24 C6.67 25.65 6.34 27.3 6 29 C4.00045254 29.04254356 1.99958364 29.04080783 0 29 C-1.73599196 27.26400804 -1.13021016 24.89938346 -1.1328125 22.5390625 C-1.13410156 21.42789063 -1.13539063 20.31671875 -1.13671875 19.171875 C-1.13285156 18.00140625 -1.12898437 16.8309375 -1.125 15.625 C-1.13080078 13.88089844 -1.13080078 13.88089844 -1.13671875 12.1015625 C-1.13542969 10.9878125 -1.13414062 9.8740625 -1.1328125 8.7265625 C-1.13168457 7.70127441 -1.13055664 6.67598633 -1.12939453 5.61962891 C-1 3 -1 3 0 0 Z " fill="#358EAB" transform="translate(189,196)"/>
<path d="M0 0 C1.24394531 -0.03738281 2.48789063 -0.07476562 3.76953125 -0.11328125 C7.1875 0.3125 7.1875 0.3125 9.57421875 2.20703125 C12.49720486 6.02177583 12.24602023 8.55947102 12.125 13.21875 C12.04249134 15.37275522 12.04249134 15.37275522 13.1875 17.3125 C13.71283389 21.16494854 13.2870068 23.10965921 11.5625 26.625 C8.60279287 29.91260471 5.25478378 29.94157013 1 30.3125 C-2.73046875 30.5 -2.73046875 30.5 -5.8125 30.3125 C-7.8125 28.3125 -7.8125 28.3125 -8.05541992 25.62280273 C-8.05131104 24.50848877 -8.04720215 23.3941748 -8.04296875 22.24609375 C-8.04103516 21.03888672 -8.03910156 19.83167969 -8.03710938 18.58789062 C-8.02486328 17.32138672 -8.01261719 16.05488281 -8 14.75 C-7.99935547 13.47962891 -7.99871094 12.20925781 -7.99804688 10.90039062 C-7.94636109 0.15549007 -7.94636109 0.15549007 0 0 Z M1.1875 8.3125 C1.1875 9.3025 1.1875 10.2925 1.1875 11.3125 C1.8475 11.3125 2.5075 11.3125 3.1875 11.3125 C3.1875 10.3225 3.1875 9.3325 3.1875 8.3125 C2.5275 8.3125 1.8675 8.3125 1.1875 8.3125 Z M1.1875 19.3125 C1.1875 20.3025 1.1875 21.2925 1.1875 22.3125 C2.5075 21.9825 3.8275 21.6525 5.1875 21.3125 C5.1875 20.6525 5.1875 19.9925 5.1875 19.3125 C3.8675 19.3125 2.5475 19.3125 1.1875 19.3125 Z " fill="#14B6A6" transform="translate(124.8125,194.6875)"/>
<path d="M0 0 C2.45114085 1.6340939 3.5421485 3.42478497 4.13671875 6.2890625 C5.48292236 20.19247681 5.48292236 20.19247681 1.8125 26.1875 C-2.82666646 29.0637832 -6.99957012 29.09171356 -12.3125 28.125 C-16.30850301 25.59691647 -17.51517901 23.12678396 -18.625 18.6875 C-19.67485246 12.52089092 -19.99678495 8.09184215 -16.57421875 2.67578125 C-12.00061264 -2.94564793 -6.23427045 -2.35891314 0 0 Z M-8.3125 6.125 C-10.58466848 7.96237827 -10.58466848 7.96237827 -10.5078125 10.7265625 C-10.48460938 11.72429687 -10.46140625 12.72203125 -10.4375 13.75 C-10.41945313 14.75289062 -10.40140625 15.75578125 -10.3828125 16.7890625 C-10.35960938 17.55992187 -10.33640625 18.33078125 -10.3125 19.125 C-7.8375 20.115 -7.8375 20.115 -5.3125 21.125 C-2.69354952 16.34926677 -3.48130569 12.28065119 -4.3125 7.125 C-6.20429203 6.4435177 -6.20429203 6.4435177 -8.3125 6.125 Z " fill="#1BB5A5" transform="translate(111.3125,195.875)"/>
<path d="M0 0 C2.08304538 -0.05418326 4.16649768 -0.09287551 6.25 -0.125 C7.99023438 -0.15980469 7.99023438 -0.15980469 9.765625 -0.1953125 C12.87728105 -0.00741056 14.46984317 0.24746018 17 2 C19.69432126 6.04148189 19.65757261 9.25548876 19 14 C17.4375 17 17.4375 17 15 19 C11.25 19.8125 11.25 19.8125 8 20 C8.020625 21.299375 8.04125 22.59875 8.0625 23.9375 C8.08399454 25.29165633 8.07148199 26.64756083 8 28 C7 29 7 29 3.4375 29.0625 C2.303125 29.041875 1.16875 29.02125 0 29 C-1.39850246 26.20299508 -1.0101384 24.01884641 -0.87890625 20.8984375 C-0.83056641 19.68671875 -0.78222656 18.475 -0.73242188 17.2265625 C-0.67634766 15.95554688 -0.62027344 14.68453125 -0.5625 13.375 C-0.51029297 12.09625 -0.45808594 10.8175 -0.40429688 9.5 C-0.2743123 6.333103 -0.13933598 3.16649713 0 0 Z M8 7 C7.67 8.65 7.34 10.3 7 12 C8.32 12.33 9.64 12.66 11 13 C12.01111093 9.95086772 12.01111093 9.95086772 11 7 C10.01 7 9.02 7 8 7 Z " fill="#368DA7" transform="translate(219,196)"/>
<path d="M0 0 C5.90873537 3.28532144 11.58222746 6.87927647 17.25 10.5625 C18.1471875 11.13935547 19.044375 11.71621094 19.96875 12.31054688 C21.26039063 13.14875977 21.26039063 13.14875977 22.578125 14.00390625 C23.35575195 14.50736572 24.13337891 15.0108252 24.93457031 15.52954102 C26.84105396 16.88684019 28.40787552 18.2919287 30 20 C29.154375 20.268125 28.30875 20.53625 27.4375 20.8125 C20.42634823 23.23453425 16.37545825 25.03346602 12 31 C9.12963073 28.54432559 8.05380592 26.10836189 6.73828125 22.59765625 C6.34189453 21.54255859 5.94550781 20.48746094 5.53710938 19.40039062 C5.13298828 18.29888672 4.72886719 17.19738281 4.3125 16.0625 C3.89677734 14.96486328 3.48105469 13.86722656 3.05273438 12.73632812 C0 4.52051262 0 4.52051262 0 0 Z " fill="#15B7A6" transform="translate(158,71)"/>
<path d="M0 0 C0.66 0 1.32 0 2 0 C2.57446809 20.72340426 2.57446809 20.72340426 -1 29 C-1.33 29 -1.66 29 -2 29 C-2.495 26.03 -2.495 26.03 -3 23 C-2.34 23 -1.68 23 -1 23 C-1.495 19.535 -1.495 19.535 -2 16 C-2.66 16 -3.32 16 -4 16 C-4 16.66 -4 17.32 -4 18 C-4.66 18 -5.32 18 -6 18 C-6 18.66 -6 19.32 -6 20 C-7.86328125 21.47265625 -7.86328125 21.47265625 -10.3125 23.0625 C-11.11300781 23.58972656 -11.91351563 24.11695313 -12.73828125 24.66015625 C-17.20736399 27.30764395 -21.34826947 27.14808482 -26.38354492 27.14526367 C-27.6670282 27.15030159 -27.6670282 27.15030159 -28.97644043 27.15544128 C-31.81113124 27.16495564 -34.64576296 27.16689492 -37.48046875 27.16796875 C-39.45241826 27.171182 -41.42436752 27.17454612 -43.39631653 27.17805481 C-47.53480583 27.184048 -51.67327424 27.18589461 -55.81176758 27.18530273 C-61.10320341 27.18520133 -66.39450439 27.19883013 -71.68590832 27.21607494 C-75.76181141 27.22722153 -79.83768224 27.22922109 -83.91359901 27.22869301 C-85.86354345 27.22987001 -87.8134888 27.23427606 -89.7634182 27.24202538 C-92.49886732 27.25187486 -95.23402819 27.24892725 -97.96948242 27.24291992 C-99.167593 27.25134918 -99.167593 27.25134918 -100.38990784 27.25994873 C-105.56230428 27.23123273 -110.07570175 26.65028249 -115 25 C-115.33 24.01 -115.66 23.02 -116 22 C-116.825 21.566875 -117.65 21.13375 -118.5 20.6875 C-121 19 -121 19 -121.8125 15.8125 C-121.874375 14.884375 -121.93625 13.95625 -122 13 C-121.505 13.721875 -121.01 14.44375 -120.5 15.1875 C-116.76499102 19.3893851 -112.33438648 22.22187117 -107 24 C-104.19762063 24.11189934 -101.41946948 24.16768387 -98.61645508 24.17700195 C-97.3329718 24.18685875 -97.3329718 24.18685875 -96.02355957 24.19691467 C-93.18888256 24.216641 -90.35425857 24.22830992 -87.51953125 24.23828125 C-86.55036963 24.24235678 -85.581208 24.2464323 -84.58267784 24.25063133 C-79.4511982 24.27149105 -74.31974529 24.28579218 -69.18823242 24.29516602 C-63.89666194 24.30621928 -58.60551327 24.34060707 -53.31409168 24.38033772 C-49.23818702 24.40652828 -45.16238239 24.41486012 -41.08640099 24.41844749 C-39.13643234 24.42330855 -37.18646802 24.43490879 -35.2365818 24.45348549 C-32.50089091 24.47792475 -29.76628502 24.47690303 -27.03051758 24.4699707 C-26.23177719 24.48278076 -25.4330368 24.49559082 -24.61009216 24.50878906 C-19.57846461 24.46254458 -16.10845256 23.44370383 -11.72548962 20.95613384 C-10 20 -10 20 -7 19 C-5.87870988 16.8063219 -5.87870988 16.8063219 -5 14 C-4.57460938 12.82824219 -4.14921875 11.65648437 -3.7109375 10.44921875 C-3.04964844 8.58716797 -3.04964844 8.58716797 -2.375 6.6875 C-2.14554687 6.04232422 -1.91609375 5.39714844 -1.6796875 4.73242188 C-1.1189182 3.15525821 -0.55933709 1.57767216 0 0 Z " fill="#309C93" transform="translate(262,138)"/>
<path d="M0 0 C0.97996948 -0.00335861 1.95993896 -0.00671722 2.96960449 -0.01017761 C6.18954761 -0.01962922 9.40943842 -0.02162771 12.62939453 -0.02270508 C14.88086976 -0.02592134 17.13234478 -0.02928569 19.38381958 -0.03279114 C24.09605392 -0.03876768 28.80826995 -0.04063252 33.52050781 -0.04003906 C39.54136879 -0.03993745 45.56211183 -0.05359567 51.58294487 -0.07081127 C56.2310947 -0.08196007 60.87921625 -0.08395739 65.52737808 -0.08342934 C67.74640434 -0.08460487 69.96543143 -0.08900258 72.18444443 -0.0967617 C75.29492077 -0.10662116 78.40514409 -0.10366024 81.515625 -0.09765625 C82.42087921 -0.10327576 83.32613342 -0.10889526 84.25881958 -0.11468506 C99.40870801 -0.04083117 99.40870801 -0.04083117 103.67091179 3.71853352 C104.07228922 4.18935447 104.47366665 4.66017542 104.88720703 5.14526367 C103.78564774 4.8212558 102.68408844 4.49724792 101.54914856 4.16342163 C96.45127621 2.89713082 91.52669918 2.84978612 86.29614258 2.85473633 C85.26591476 2.8480191 84.23568695 2.84130188 83.17424011 2.8343811 C79.79075218 2.81548034 76.40746311 2.81148209 73.02392578 2.80932617 C70.66599954 2.80289697 68.30807411 2.79616851 65.95014954 2.78915405 C61.02021431 2.77720422 56.09034907 2.7734713 51.16040039 2.7746582 C44.83380173 2.77486223 38.50764805 2.74746321 32.1811552 2.71311378 C27.31795675 2.69092599 22.45486721 2.68681802 17.59162331 2.68787766 C15.25794745 2.68551316 12.92426897 2.67664228 10.59064293 2.66121292 C7.3372049 2.64170078 4.08475141 2.64733106 0.83129883 2.65942383 C-0.62043732 2.64256531 -0.62043732 2.64256531 -2.10150146 2.62536621 C-7.18216933 2.50420506 -7.18216933 2.50420506 -11.23429871 5.17562866 C-11.52420181 5.82560822 -11.81410492 6.47558777 -12.11279297 7.14526367 C-13.10279297 6.81526367 -14.09279297 6.48526367 -15.11279297 6.14526367 C-15.11279297 5.48526367 -15.11279297 4.82526367 -15.11279297 4.14526367 C-17.09279297 4.14526367 -19.07279297 4.14526367 -21.11279297 4.14526367 C-21.11279297 4.80526367 -21.11279297 5.46526367 -21.11279297 6.14526367 C-22.76279297 6.14526367 -24.41279297 6.14526367 -26.11279297 6.14526367 C-18.08102944 -0.16540767 -9.86275573 -0.00491548 0 0 Z " fill="#34AFA0" transform="translate(144.11279296875,32.854736328125)"/>
<path d="M0 0 C1.24394531 -0.03738281 2.48789063 -0.07476562 3.76953125 -0.11328125 C7.1875 0.3125 7.1875 0.3125 9.57421875 2.20703125 C12.49720486 6.02177583 12.24602023 8.55947102 12.125 13.21875 C12.04249134 15.37275522 12.04249134 15.37275522 13.1875 17.3125 C13.227492 19.31210012 13.23096799 21.31297242 13.1875 23.3125 C11.5375 23.6425 9.8875 23.9725 8.1875 24.3125 C7.8575 23.6525 7.5275 22.9925 7.1875 22.3125 C4.85674071 23.27115509 4.85674071 23.27115509 3.1875 26.3125 C2.5275 26.6425 1.8675 26.9725 1.1875 27.3125 C-0.2075848 25.01471327 -0.88688619 23.8332033 -0.5 21.125 C0.1875 19.3125 0.1875 19.3125 1.1875 18.3125 C3.52083333 18.3125 5.85416667 18.3125 8.1875 18.3125 C9.55282549 17.17548403 9.55282549 17.17548403 9.28515625 14.15234375 C9.27355469 12.86457031 9.26195312 11.57679688 9.25 10.25 C9.24097656 8.95964844 9.23195312 7.66929687 9.22265625 6.33984375 C9.21105469 5.34082031 9.19945312 4.34179688 9.1875 3.3125 C6.5475 3.3125 3.9075 3.3125 1.1875 3.3125 C1.1875 4.3025 1.1875 5.2925 1.1875 6.3125 C2.1775 6.6425 3.1675 6.9725 4.1875 7.3125 C4.1875 8.9625 4.1875 10.6125 4.1875 12.3125 C1.8775 12.6425 -0.4325 12.9725 -2.8125 13.3125 C-2.8125 11.3125 -2.8125 11.3125 -1.3125 9.6875 C-0.8175 9.23375 -0.3225 8.78 0.1875 8.3125 C-0.4725 7.9825 -1.1325 7.6525 -1.8125 7.3125 C-4.43222269 9.93222269 -4.81271699 12.31657934 -5.0078125 15.984375 C-4.99461335 17.34388796 -4.97090107 18.70333332 -4.9375 20.0625 C-4.92847656 20.75988281 -4.91945313 21.45726562 -4.91015625 22.17578125 C-4.88669888 23.88816958 -4.85083104 25.60038004 -4.8125 27.3125 C-0.1925 27.3125 4.4275 27.3125 9.1875 27.3125 C8.8575 27.9725 8.5275 28.6325 8.1875 29.3125 C5.09765625 29.796875 5.09765625 29.796875 1.25 30.0625 C-0.65072266 30.20945313 -0.65072266 30.20945313 -2.58984375 30.359375 C-5.8125 30.3125 -5.8125 30.3125 -7.8125 28.3125 C-8.05541992 25.62280273 -8.05541992 25.62280273 -8.04296875 22.24609375 C-8.04103516 21.03888672 -8.03910156 19.83167969 -8.03710938 18.58789062 C-8.02486328 17.32138672 -8.01261719 16.05488281 -8 14.75 C-7.99935547 13.47962891 -7.99871094 12.20925781 -7.99804688 10.90039062 C-7.94636109 0.15549007 -7.94636109 0.15549007 0 0 Z M1.1875 8.3125 C1.1875 9.3025 1.1875 10.2925 1.1875 11.3125 C1.8475 11.3125 2.5075 11.3125 3.1875 11.3125 C3.1875 10.3225 3.1875 9.3325 3.1875 8.3125 C2.5275 8.3125 1.8675 8.3125 1.1875 8.3125 Z M1.1875 19.3125 C1.1875 20.3025 1.1875 21.2925 1.1875 22.3125 C2.5075 21.9825 3.8275 21.6525 5.1875 21.3125 C5.1875 20.6525 5.1875 19.9925 5.1875 19.3125 C3.8675 19.3125 2.5475 19.3125 1.1875 19.3125 Z " fill="#26ADA3" transform="translate(124.8125,194.6875)"/>
<path d="M0 0 C3.5 0.125 3.5 0.125 4.5 1.125 C4.64893582 4.87528085 4.44624531 8.62559744 4.3125 12.375 C4.29380859 13.42558594 4.27511719 14.47617188 4.25585938 15.55859375 C3.97523765 23.32738464 3.97523765 23.32738464 1.60546875 27.3046875 C-0.85804515 29.43455295 -2.26267055 29.96313353 -5.5 30.125 C-7.8125 29.6875 -7.8125 29.6875 -9.5 29.125 C-9.5 27.145 -9.5 25.165 -9.5 23.125 C-7.85 22.795 -6.2 22.465 -4.5 22.125 C-4.50523682 21.49408447 -4.51047363 20.86316895 -4.51586914 20.21313477 C-4.53657826 17.37126653 -4.54964066 14.52941412 -4.5625 11.6875 C-4.57087891 10.69427734 -4.57925781 9.70105469 -4.58789062 8.67773438 C-4.59111328 7.73349609 -4.59433594 6.78925781 -4.59765625 5.81640625 C-4.60289307 4.94185791 -4.60812988 4.06730957 -4.61352539 3.16625977 C-4.41653388 -0.37577463 -3.67657832 0.13130637 0 0 Z " fill="#17B5A6" transform="translate(87.5,194.875)"/>
<path d="M0 0 C-0.33 1.32 -0.66 2.64 -1 4 C-1.639375 4.12375 -2.27875 4.2475 -2.9375 4.375 C-3.618125 4.58125 -4.29875 4.7875 -5 5 C-6.53266582 8.06533164 -6.10276471 11.26754272 -6.0625 14.625 C-6.05798828 15.33140625 -6.05347656 16.0378125 -6.04882812 16.765625 C-6.03703875 18.51045275 -6.01910324 20.255237 -6 22 C-4.02 22 -2.04 22 0 22 C0.33 21.01 0.66 20.02 1 19 C3 21 3 21 3 24 C0.50959058 26.49040942 -0.43154357 26.32391014 -3.875 26.375 C-7.25351386 26.29699679 -8.6647743 26.21258215 -11.5625 24.375 C-13.25597063 21.57709201 -13.57118916 19.21608129 -14 16 C-14.66 15.67 -15.32 15.34 -16 15 C-15.34 15 -14.68 15 -14 15 C-14.061875 13.96875 -14.12375 12.9375 -14.1875 11.875 C-13.98490162 7.68796673 -13.27311598 5.49085668 -11 2 C-7.64936097 -0.63264495 -4.11842747 -0.15840106 0 0 Z " fill="#308FAE" transform="translate(179,197)"/>
<path d="M0 0 C0.6511528 -0.00350464 1.3023056 -0.00700928 1.97319031 -0.01062012 C4.10626156 -0.01935957 6.23899623 -0.01361897 8.37207031 -0.00683594 C9.86086083 -0.00818418 11.34965092 -0.01012604 12.83843994 -0.01263428 C15.94848856 -0.01557441 19.05842187 -0.01132135 22.16845703 -0.00195312 C26.1589505 0.00948066 30.14917608 0.00285032 34.13965988 -0.00909805 C37.20908644 -0.01631288 40.27844906 -0.01403118 43.3478775 -0.00884247 C44.81991864 -0.00750698 46.29196555 -0.00915019 47.76399994 -0.01380157 C49.81548046 -0.01886505 51.86652112 -0.01116146 53.91796875 0 C55.0856781 0.00159119 56.25338745 0.00318237 57.45648193 0.00482178 C60.20019531 0.25878906 60.20019531 0.25878906 62.20019531 2.25878906 C60.94564796 2.27425026 60.94564796 2.27425026 59.66575623 2.2900238 C51.76530165 2.3881967 43.86491827 2.49073838 35.9645834 2.59812832 C31.90341713 2.65317958 27.84224347 2.70656999 23.78100586 2.75610352 C19.85818135 2.804011 15.93543852 2.85636123 12.01271248 2.91172981 C10.5197053 2.93203447 9.02667583 2.95076623 7.53362846 2.96786308 C5.43469105 2.99217264 3.33590414 3.02218755 1.23706055 3.0534668 C0.04459213 3.06901108 -1.14787628 3.08455536 -2.3764801 3.10057068 C-5.90431561 3.26361932 -9.31389032 3.70384953 -12.79980469 4.25878906 C-12.79980469 3.59878906 -12.79980469 2.93878906 -12.79980469 2.25878906 C-8.38042458 0.57029235 -4.72118913 0.00641587 0 0 Z " fill="#31AA9D" transform="translate(163.7998046875,46.7412109375)"/>
<path d="M0 0 C1.65 0 3.3 0 5 0 C4.96519531 0.66386719 4.93039063 1.32773438 4.89453125 2.01171875 C4.73063025 7.35801319 4.83198598 10.51198013 8 15 C8 16.32 8 17.64 8 19 C7.34 19 6.68 19 6 19 C6 19.66 6 20.32 6 21 C5.34 21 4.68 21 4 21 C4 22.65 4 24.3 4 26 C3.34 25.34 2.68 24.68 2 24 C2.33 23.34 2.66 22.68 3 22 C2.34 22 1.68 22 1 22 C-0.20029908 19.59940183 -0.11459743 18.10639351 -0.09765625 15.4296875 C-0.09443359 14.53378906 -0.09121094 13.63789063 -0.08789062 12.71484375 C-0.07951172 11.77769531 -0.07113281 10.84054688 -0.0625 9.875 C-0.05798828 8.93011719 -0.05347656 7.98523438 -0.04882812 7.01171875 C-0.03702357 4.67441613 -0.02055759 2.33723939 0 0 Z " fill="#2F90AF" transform="translate(221,197)"/>
<path d="M0 0 C0.03738281 0.75925781 0.07476562 1.51851562 0.11328125 2.30078125 C0.17902344 3.29464844 0.24476562 4.28851563 0.3125 5.3125 C0.39951172 6.79169922 0.39951172 6.79169922 0.48828125 8.30078125 C0.80488616 11.00556224 0.80488616 11.00556224 2.34375 12.875 C4.10945868 14.332491 4.10945868 14.332491 7.1875 13.6875 C8.115625 13.460625 9.04375 13.23375 10 13 C10 14.98 10 16.96 10 19 C8.58344207 19.0272415 7.16672955 19.04650467 5.75 19.0625 C4.56664063 19.07990234 4.56664063 19.07990234 3.359375 19.09765625 C1.09308998 19.00385306 -0.8288895 18.63241063 -3 18 C-4.61928087 12.57064649 -5.43721901 8.63832071 -4 3 C-1.67741935 0 -1.67741935 0 0 0 Z " fill="#15B7A7" transform="translate(99,204)"/>
<path d="M0 0 C0.66 0 1.32 0 2 0 C3.14814997 2.29629994 3.30769809 4.07698086 3.5625 6.625 C3.64628906 7.44226563 3.73007813 8.25953125 3.81640625 9.1015625 C3.87699219 9.72804687 3.93757813 10.35453125 4 11 C5.65 10.67 7.3 10.34 9 10 C9.40488369 14.12981363 9.39370285 16.36192987 7.1875 19.9375 C2.6946229 22.84465577 -1.76587595 23.01142494 -7 22 C-7.66 21.01 -8.32 20.02 -9 19 C-3.06 19.99 -3.06 19.99 3 21 C3 19.02 3 17.04 3 15 C0.69 15.66 -1.62 16.32 -4 17 C-4 16.01 -4 15.02 -4 14 C-2.68 14 -1.36 14 0 14 C0.19627391 12.41773035 0.38165538 10.83410729 0.5625 9.25 C0.66691406 8.36828125 0.77132812 7.4865625 0.87890625 6.578125 C0.99456676 4.11567549 0.73638695 2.33461936 0 0 Z " fill="#26AB9E" transform="translate(106,202)"/>
<path d="M0 0 C3.5 0.125 3.5 0.125 4.5 1.125 C4.59298101 4.93891978 4.35356533 8.75209695 4.1875 12.5625 C4.15205078 13.63822266 4.11660156 14.71394531 4.08007812 15.82226562 C4.03689453 16.84900391 3.99371094 17.87574219 3.94921875 18.93359375 C3.91143311 19.88032959 3.87364746 20.82706543 3.8347168 21.80249023 C3.5 24.125 3.5 24.125 1.5 26.125 C1.5 19.525 1.5 12.925 1.5 6.125 C0.51 6.455 -0.48 6.785 -1.5 7.125 C-1.54898438 8.12402344 -1.59796875 9.12304688 -1.6484375 10.15234375 C-1.72320312 11.44269531 -1.79796875 12.73304688 -1.875 14.0625 C-1.97941406 15.99416016 -1.97941406 15.99416016 -2.0859375 17.96484375 C-2.22257812 19.00769531 -2.35921875 20.05054688 -2.5 21.125 C-3.16 21.455 -3.82 21.785 -4.5 22.125 C-4.52887814 18.64585059 -4.54675687 15.16673169 -4.5625 11.6875 C-4.57087891 10.69427734 -4.57925781 9.70105469 -4.58789062 8.67773438 C-4.59111328 7.73349609 -4.59433594 6.78925781 -4.59765625 5.81640625 C-4.60289307 4.94185791 -4.60812988 4.06730957 -4.61352539 3.16625977 C-4.41653388 -0.37577463 -3.67657832 0.13130637 0 0 Z " fill="#2FAEA3" transform="translate(87.5,194.875)"/>
<path d="M0 0 C0.66 0 1.32 0 2 0 C2.33 7.59 2.66 15.18 3 23 C3.66 23 4.32 23 5 23 C5 23.99 5 24.98 5 26 C5.33 24.68 5.66 23.36 6 22 C6.66 22 7.32 22 8 22 C8.04254356 23.99954746 8.04080783 26.00041636 8 28 C7 29 7 29 3.4375 29.0625 C2.303125 29.041875 1.16875 29.02125 0 29 C-1.39850246 26.20299508 -1.0101384 24.01884641 -0.87890625 20.8984375 C-0.83056641 19.68671875 -0.78222656 18.475 -0.73242188 17.2265625 C-0.67634766 15.95554688 -0.62027344 14.68453125 -0.5625 13.375 C-0.51029297 12.09625 -0.45808594 10.8175 -0.40429688 9.5 C-0.2743123 6.333103 -0.13933598 3.16649713 0 0 Z " fill="#3E88A2" transform="translate(219,196)"/>
<path d="M0 0 C2.3125 -0.25 2.3125 -0.25 5 0 C7.37949604 2.33459989 7.96807604 3.67139607 8.29296875 7.015625 C8.25816406 8.08296875 8.22335938 9.1503125 8.1875 10.25 C8.16042969 11.32765625 8.13335937 12.4053125 8.10546875 13.515625 C8.07066406 14.33546875 8.03585938 15.1553125 8 16 C7.01 15.67 6.02 15.34 5 15 C4.67 12.03 4.34 9.06 4 6 C3.01 6.33 2.02 6.66 1 7 C0.91051442 11.47427924 1.14256349 15.60563789 2 20 C-0.47621634 18.12448304 -0.97824248 17.11200013 -1.58203125 14.00390625 C-1.65808594 12.86824219 -1.73414062 11.73257813 -1.8125 10.5625 C-1.90144531 9.42941406 -1.99039063 8.29632813 -2.08203125 7.12890625 C-2.00176225 4.06721722 -1.62038286 2.54631592 0 0 Z " fill="#25ADA2" transform="translate(94,200)"/>
<path d="M0 0 C0.66 0 1.32 0 2 0 C2.57446809 20.72340426 2.57446809 20.72340426 -1 29 C-1.33 29 -1.66 29 -2 29 C-2.33 27.02 -2.66 25.04 -3 23 C-2.34 23 -1.68 23 -1 23 C-1.33 20.69 -1.66 18.38 -2 16 C-2.66 16 -3.32 16 -4 16 C-3.47606294 10.13190493 -2.23891142 5.45126259 0 0 Z " fill="#19B79C" transform="translate(262,138)"/>
<path d="M0 0 C2 2 2 2 2.24291992 4.13891602 C2.23675659 5.43333618 2.23675659 5.43333618 2.23046875 6.75390625 C2.22853516 7.69041016 2.22660156 8.62691406 2.22460938 9.59179688 C2.21236328 10.57212891 2.20011719 11.55246094 2.1875 12.5625 C2.18685547 13.54669922 2.18621094 14.53089844 2.18554688 15.54492188 C2.14017532 22.85982468 2.14017532 22.85982468 1 24 C-1.33297433 24.04092937 -3.66705225 24.04241723 -6 24 C-5.67 22.68 -5.34 21.36 -5 20 C-5 20.99 -5 21.98 -5 23 C-3.35 22.67 -1.7 22.34 0 22 C-0.94933899 18.64566891 -1.89748835 15.30753495 -3 12 C-5.97 11.505 -5.97 11.505 -9 11 C-8.67 10.34 -8.34 9.68 -8 9 C-7.01 9.33 -6.02 9.66 -5 10 C-4.34 8.68 -3.68 7.36 -3 6 C-2.34 6 -1.68 6 -1 6 C-1.20625 5.38125 -1.4125 4.7625 -1.625 4.125 C-1.74875 3.42375 -1.8725 2.7225 -2 2 C-1.34 1.34 -0.68 0.68 0 0 Z " fill="#338CAA" transform="translate(214,201)"/>
<path d="M0 0 C0 0.66 0 1.32 0 2 C0.33 2.66 0.66 3.32 1 4 C1.039992 5.99960012 1.04346799 8.00047242 1 10 C-0.65 10.33 -2.3 10.66 -4 11 C-4.66 9.35 -5.32 7.7 -6 6 C-6.99 6 -7.98 6 -9 6 C-8.67 4.35 -8.34 2.7 -8 1 C-2.25 -1.125 -2.25 -1.125 0 0 Z " fill="#328EAF" transform="translate(213,213)"/>
<path d="M0 0 C3 1 3 1 5 4 C5.72443175 8.49821576 5.55773188 12.00847665 3.3125 16 C0.78993231 18.18168017 -0.7129718 18.72608098 -4 19 C-5.25664978 16.09399739 -6 14.20395416 -6 11 C-5.01 11 -4.02 11 -3 11 C-2.67 10.34 -2.34 9.68 -2 9 C-1.34 9 -0.68 9 0 9 C-0.66 10.65 -1.32 12.3 -2 14 C-1.34 14.33 -0.68 14.66 0 15 C2.89932357 12.60490662 3.50168276 10.68754757 4 7 C3.01 6.67 2.02 6.34 1 6 C0.67 4.02 0.34 2.04 0 0 Z " fill="#408DA8" transform="translate(233,197)"/>
<path d="M0 0 C6.59997031 3.5999838 12.7765509 7.78971917 19 12 C16 13 16 13 12.8125 11.5625 C11.884375 11.046875 10.95625 10.53125 10 10 C10 9.34 10 8.68 10 8 C7.03 7.505 7.03 7.505 4 7 C4.33 9.31 4.66 11.62 5 14 C2.96470413 11.96470413 2.3615728 10.76582618 1.375 8.125 C1.11460937 7.44695312 0.85421875 6.76890625 0.5859375 6.0703125 C0 4 0 4 0 0 Z " fill="#30A99C" transform="translate(158,71)"/>
<path d="M0 0 C2 3 2 3 2 7 C-1.13349732 8.04449911 -1.98968256 7.93423645 -5 7 C-5.33 5.68 -5.66 4.36 -6 3 C-6.66 3 -7.32 3 -8 3 C-7.67 2.01 -7.34 1.02 -7 0 C-3.86559131 -1.0448029 -2.97903963 -1.15317663 0 0 Z " fill="#3191AF" transform="translate(273,210)"/>
<path d="M0 0 C2.64 0.33 5.28 0.66 8 1 C7.67 1.99 7.34 2.98 7 4 C9.97 4.33 12.94 4.66 16 5 C13 8 13 8 10.51953125 8.29296875 C9.62621094 8.25816406 8.73289062 8.22335938 7.8125 8.1875 C6.91144531 8.16042969 6.01039063 8.13335937 5.08203125 8.10546875 C4.39496094 8.07066406 3.70789063 8.03585938 3 8 C3 5 3 5 4 3 C2.68 2.67 1.36 2.34 0 2 C0 1.34 0 0.68 0 0 Z " fill="#3E8AA6" transform="translate(258,217)"/>
<path d="M0 0 C-0.33 4.29 -0.66 8.58 -1 13 C-0.34 13 0.32 13 1 13 C2.625 15 2.625 15 4 17 C3.01 17.99 2.02 18.98 1 20 C-1.86034565 14.66068812 -3.73130765 9.92056432 -5 4 C-4.34 4 -3.68 4 -3 4 C-3.33 3.01 -3.66 2.02 -4 1 C-2 0 -2 0 0 0 Z " fill="#1FAFA3" transform="translate(168,82)"/>
<path d="M0 0 C3.39192363 0.59283621 5.2107757 1.76743189 7.75 4.0625 C8.67039063 4.88427734 8.67039063 4.88427734 9.609375 5.72265625 C10.06828125 6.14417969 10.5271875 6.56570312 11 7 C7.44044831 7 6.72100827 6.10658705 4 4 C3.34 4 2.68 4 2 4 C1.87625 4.60328125 1.7525 5.2065625 1.625 5.828125 C-0.01541678 12.18474001 -0.01541678 12.18474001 -2.83984375 14.5234375 C-7.93012416 17.19654565 -7.93012416 17.19654565 -11.25390625 16.5859375 C-11.83011719 16.39257812 -12.40632812 16.19921875 -13 16 C-11.9275 15.5875 -10.855 15.175 -9.75 14.75 C-6.41120499 13.27958119 -4.16175378 12.04246829 -2 9 C-1.10158705 6.03267036 -0.49664663 3.05829765 0 0 Z " fill="#478BA0" transform="translate(202,104)"/>
<path d="M0 0 C0.7425 1.0828125 0.7425 1.0828125 1.5 2.1875 C8.67675459 10.26134891 17.61654166 12.22021459 28 13 C28 13.33 28 13.66 28 14 C13.55820896 14.39626866 13.55820896 14.39626866 7 12 C6.67 11.01 6.34 10.02 6 9 C5.175 8.566875 4.35 8.13375 3.5 7.6875 C1 6 1 6 0.1875 2.8125 C0.125625 1.884375 0.06375 0.95625 0 0 Z " fill="#25A99A" transform="translate(140,151)"/>
<path d="M0 0 C0.99 0 1.98 0 3 0 C0.91807854 4.86817455 -2.26355816 6.85533913 -7 9 C-10.64117502 9.9330212 -14.27130751 10.54076765 -18 11 C-18 10.01 -18 9.02 -18 8 C-17.01 7.67 -16.02 7.34 -15 7 C-14.34 6.34 -13.68 5.68 -13 5 C-12.01 5.66 -11.02 6.32 -10 7 C-6.454817 5.73068271 -6.454817 5.73068271 -3 4 C-2.01 3.67 -1.02 3.34 0 3 C0 2.01 0 1.02 0 0 Z " fill="#24B2A5" transform="translate(252,173)"/>
<path d="M0 0 C0.33 0 0.66 0 1 0 C1 1.65 1 3.3 1 5 C2.32 5 3.64 5 5 5 C5.33 3.35 5.66 1.7 6 0 C8.97 0 11.94 0 15 0 C15.33 1.65 15.66 3.3 16 5 C18.97 5.495 18.97 5.495 22 6 C22 6.33 22 6.66 22 7 C20.02 7 18.04 7 16 7 C15.34 5.35 14.68 3.7 14 2 C11.69 1.67 9.38 1.34 7 1 C6.34 2.98 5.68 4.96 5 7 C3.02 7 1.04 7 -1 7 C-0.67 4.69 -0.34 2.38 0 0 Z " fill="#47899B" transform="translate(236,218)"/>
<path d="M0 0 C1.32 0 2.64 0 4 0 C4 0.66 4 1.32 4 2 C4.66 2.33 5.32 2.66 6 3 C6 4.65 6 6.3 6 8 C5.01 8.33 4.02 8.66 3 9 C2.67 9.99 2.34 10.98 2 12 C1.01 11.01 0.02 10.02 -1 9 C-0.01 7.68 0.98 6.36 2 5 C1.01 4.67 0.02 4.34 -1 4 C-0.67 2.68 -0.34 1.36 0 0 Z " fill="#2E92B1" transform="translate(231,201)"/>
<path d="M0 0 C0.66 0 1.32 0 2 0 C2.19335938 0.56589844 2.38671875 1.13179687 2.5859375 1.71484375 C2.84632813 2.44832031 3.10671875 3.18179688 3.375 3.9375 C3.63023437 4.66839844 3.88546875 5.39929688 4.1484375 6.15234375 C4.85271413 8.18682116 4.85271413 8.18682116 7 9 C9.04055005 9.07065617 11.08334257 9.08421976 13.125 9.0625 C14.22070312 9.05347656 15.31640625 9.04445312 16.4453125 9.03515625 C17.28835937 9.02355469 18.13140625 9.01195312 19 9 C16.58789201 11.82283845 16.17494834 11.98279197 12.1875 12.375 C8.20382081 12.22093506 5.38486034 11.17598165 2 9 C-0.29013653 5.5647952 -0.17842973 4.014669 0 0 Z " fill="#3F859A" transform="translate(163,213)"/>
<path d="M0 0 C1.4604128 4.55960944 0.87974949 9.08781828 0.64453125 13.80859375 C1.08487507 17.76201021 2.13711033 19.27903135 5 22 C7.31810557 23.00575537 7.31810557 23.00575537 9.75 23.3125 C10.54921875 23.45300781 11.3484375 23.59351563 12.171875 23.73828125 C12.77515625 23.82464844 13.3784375 23.91101563 14 24 C14 24.33 14 24.66 14 25 C5.18700114 25.44811859 5.18700114 25.44811859 1 22 C-1.51807656 18.3237837 -1.23426819 14.78694135 -1.1875 10.4375 C-1.1865332 9.42913086 -1.1865332 9.42913086 -1.18554688 8.40039062 C-1.1581579 5.33586829 -0.9757613 2.9272839 0 0 Z " fill="#47889B" transform="translate(146,200)"/>
<path d="M0 0 C0 1.32 0 2.64 0 4 C0.66 4 1.32 4 2 4 C1.67 5.32 1.34 6.64 1 8 C-0.32 8 -1.64 8 -3 8 C-3.33 8.99 -3.66 9.98 -4 11 C-5.39935013 8.20129973 -5.25265405 6.09501208 -5 3 C-3.36508916 0.77057613 -2.79808925 0 0 0 Z " fill="#11B9AB" transform="translate(114,204)"/>
<path d="M0 0 C3.30243306 3.30243306 2.64997776 7.44971086 3 12 C7.62 12 12.24 12 17 12 C16.67 12.66 16.34 13.32 16 14 C12.91015625 14.484375 12.91015625 14.484375 9.0625 14.75 C7.16177734 14.89695313 7.16177734 14.89695313 5.22265625 15.046875 C2 15 2 15 0 13 C-0.1953125 9.9609375 -0.1953125 9.9609375 -0.125 6.375 C-0.10695313 5.18648437 -0.08890625 3.99796875 -0.0703125 2.7734375 C-0.04710938 1.85820312 -0.02390625 0.94296875 0 0 Z " fill="#2F9C98" transform="translate(117,210)"/>
<path d="M0 0 C6.93 0.495 6.93 0.495 14 1 C13.34 1.66 12.68 2.32 12 3 C11.83312552 5.58354218 11.83312552 5.58354218 12 8 C11.34 8 10.68 8 10 8 C9.67 7.01 9.34 6.02 9 5 C7.05396726 4.40929986 7.05396726 4.40929986 5 4 C4.34 3.34 3.68 2.68 3 2 C2.34 2.66 1.68 3.32 1 4 C0.67 2.68 0.34 1.36 0 0 Z " fill="#3B8DA7" transform="translate(178,120)"/>
<path d="M0 0 C0.33 0 0.66 0 1 0 C0.34 8.25 -0.32 16.5 -1 25 C-1.33 25 -1.66 25 -2 25 C-2.05816623 21.58340509 -2.09365195 18.16693795 -2.125 14.75 C-2.14175781 13.78191406 -2.15851563 12.81382812 -2.17578125 11.81640625 C-2.18222656 10.88183594 -2.18867188 9.94726562 -2.1953125 8.984375 C-2.20578613 8.12553711 -2.21625977 7.26669922 -2.22705078 6.38183594 C-1.98293323 3.82096404 -1.28990512 2.20488971 0 0 Z " fill="#45879F" transform="translate(225,125)"/>
<path d="M0 0 C0.66 0.33 1.32 0.66 2 1 C1.814375 1.86625 1.62875 2.7325 1.4375 3.625 C0.99332067 7.05152628 1.28045508 9.64212371 2 13 C1.34 13 0.68 13 0 13 C-0.99 10.69 -1.98 8.38 -3 6 C-4.98 6 -6.96 6 -9 6 C-8.67 4.68 -8.34 3.36 -8 2 C-5.69 2.33 -3.38 2.66 -1 3 C-0.67 2.01 -0.34 1.02 0 0 Z " fill="#3E869E" transform="translate(275,204)"/>
<path d="M0 0 C0.33 0 0.66 0 1 0 C1.82264831 5.65570712 2.42564759 11.27879563 2 17 C1 18 1 18 -2.5625 18.0625 C-3.696875 18.041875 -4.83125 18.02125 -6 18 C-5.67 16.68 -5.34 15.36 -5 14 C-5 14.99 -5 15.98 -5 17 C-3.35 16.67 -1.7 16.34 0 16 C0 10.72 0 5.44 0 0 Z " fill="#48839E" transform="translate(214,207)"/>
<path d="M0 0 C1.40167793 2.80335585 0.96536981 4.0349356 0 7 C-1.6454378 8.68762851 -3.31288577 10.3540349 -5 12 C-6.319018 14.66533035 -6.319018 14.66533035 -7 17 C-7.66 16.34 -8.32 15.68 -9 15 C-8.07005883 13.05886066 -7.1307547 11.1222049 -6.1875 9.1875 C-5.66542969 8.10855469 -5.14335938 7.02960937 -4.60546875 5.91796875 C-3.23889883 3.43420298 -2.12659899 1.8200622 0 0 Z " fill="#28AC9D" transform="translate(115,41)"/>
<path d="M0 0 C0.66 0 1.32 0 2 0 C2.33 0.99 2.66 1.98 3 3 C2.01 3.33 1.02 3.66 0 4 C-0.33 5.65 -0.66 7.3 -1 9 C-2.98 9 -4.96 9 -7 9 C-6.67 8.34 -6.34 7.68 -6 7 C-5.34 7 -4.68 7 -4 7 C-4.33 5.68 -4.66 4.36 -5 3 C-4.360625 2.87625 -3.72125 2.7525 -3.0625 2.625 C-2.0415625 2.315625 -2.0415625 2.315625 -1 2 C-0.67 1.34 -0.34 0.68 0 0 Z " fill="#3A88A0" transform="translate(196,216)"/>
<path d="M0 0 C0 0.33 0 0.66 0 1 C-1.2375 1.12375 -2.475 1.2475 -3.75 1.375 C-8.15811372 1.91198841 -8.15811372 1.91198841 -12 4 C-14.06778117 7.80907057 -14.49796889 11.73273553 -15 16 C-15.33 16 -15.66 16 -16 16 C-16.28477783 10.49429536 -16.34989011 6.64662177 -13 2 C-8.30310028 -0.74724323 -5.26215123 -1.41179667 0 0 Z " fill="#438A9F" transform="translate(180,196)"/>
<path d="M0 0 C-0.33 1.65 -0.66 3.3 -1 5 C-3.64 4.67 -6.28 4.34 -9 4 C-9 3.34 -9 2.68 -9 2 C-8.34 2 -7.68 2 -7 2 C-7 1.34 -7 0.68 -7 0 C-3.86650268 -1.04449911 -3.01031744 -0.93423645 0 0 Z " fill="#16B8AA" transform="translate(88,219)"/>
<path d="M0 0 C0.33 1.32 0.66 2.64 1 4 C1.63270867 5.34977849 2.30062468 6.68352881 3 8 C4 10 4 10 5 12 C4.01 12.33 3.02 12.66 2 13 C2 11.68 2 10.36 2 9 C-1.12474627 10.63473516 -1.12474627 10.63473516 -1.6875 13.125 C-1.790625 13.74375 -1.89375 14.3625 -2 15 C-2.66 14.67 -3.32 14.34 -4 14 C-2.68 9.38 -1.36 4.76 0 0 Z " fill="#408BA5" transform="translate(242,199)"/>
<path d="M0 0 C0.33 0.99 0.66 1.98 1 3 C1.66 3 2.32 3 3 3 C3 3.99 3 4.98 3 6 C3.66 6 4.32 6 5 6 C5 7.65 5 9.3 5 11 C3.35 11.33 1.7 11.66 0 12 C0.185625 11.38125 0.37125 10.7625 0.5625 10.125 C1.23686176 7.95839822 1.23686176 7.95839822 0 6 C0.33 5.34 0.66 4.68 1 4 C0.34 4 -0.32 4 -1 4 C-0.67 2.68 -0.34 1.36 0 0 Z " fill="#2E99B5" transform="translate(275,197)"/>
<path d="M0 0 C0.66 0 1.32 0 2 0 C1.67 4.62 1.34 9.24 1 14 C0.67 12.68 0.34 11.36 0 10 C-0.66 10 -1.32 10 -2 10 C-2.33 10.66 -2.66 11.32 -3 12 C-2.40075776 7.80530429 -1.42500059 3.99000166 0 0 Z " fill="#399C90" transform="translate(262,138)"/>
<path d="M0 0 C0.33 0 0.66 0 1 0 C1 4.29 1 8.58 1 13 C-4 14 -4 14 -7 13 C-7 12.34 -7 11.68 -7 11 C-5.02 11 -3.04 11 -1 11 C-0.67 7.37 -0.34 3.74 0 0 Z " fill="#2EA69E" transform="translate(137,66)"/>
<path d="M0 0 C0 0.66 0 1.32 0 2 C-0.66 1.835 -1.32 1.67 -2 1.5 C-8.97772064 0.33199352 -8.97772064 0.33199352 -15.5 2.5 C-15.995 2.995 -16.49 3.49 -17 4 C-16.05742045 1.42932851 -15.27575276 0.18958002 -13 -1.375 C-8.45611757 -2.32164217 -4.44395931 -1.12177614 0 0 Z M-6 2 C-4 3 -4 3 -4 3 Z " fill="#4291A7" transform="translate(275,197)"/>
<path d="M0 0 C0.33 0.66 0.66 1.32 1 2 C1.99 2.33 2.98 2.66 4 3 C4 3.66 4 4.32 4 5 C5.32 5.33 6.64 5.66 8 6 C5.625 6.625 5.625 6.625 3 7 C2.34 6.34 1.68 5.68 1 5 C-1.06874034 4.3574765 -1.06874034 4.3574765 -3 4 C-2.67 3.01 -2.34 2.02 -2 1 C-1.34 0.67 -0.68 0.34 0 0 Z " fill="#20B4A8" transform="translate(98,196)"/>
<path d="M0 0 C1.25127906 3.54667178 0.72285053 5.72253438 -0.4375 9.25 C-0.72496094 10.14203125 -1.01242187 11.0340625 -1.30859375 11.953125 C-1.53675781 12.62859375 -1.76492188 13.3040625 -2 14 C-2.33 14 -2.66 14 -3 14 C-3.33 12.02 -3.66 10.04 -4 8 C-3.34 8 -2.68 8 -2 8 C-2.04125 7.236875 -2.0825 6.47375 -2.125 5.6875 C-2 3 -2 3 0 0 Z " fill="#2DAE9B" transform="translate(263,153)"/>
<path d="M0 0 C0.66 0 1.32 0 2 0 C2.04254356 1.99954746 2.04080783 4.00041636 2 6 C1 7 1 7 -2.5625 7.0625 C-3.696875 7.041875 -4.83125 7.02125 -6 7 C-6 6.34 -6 5.68 -6 5 C-4.02 5 -2.04 5 0 5 C0 3.35 0 1.7 0 0 Z " fill="#46869C" transform="translate(225,218)"/>
<path d="M0 0 C2.0625 0.4375 2.0625 0.4375 4 1 C3.34 1 2.68 1 2 1 C2 1.99 2 2.98 2 4 C1.34 4 0.68 4 0 4 C0 4.66 0 5.32 0 6 C2.31 6 4.62 6 7 6 C4.64561267 7.42944945 3.51967567 8.08661261 0.75 7.625 C0.1725 7.41875 -0.405 7.2125 -1 7 C-1.04254356 5.00045254 -1.04080783 2.99958364 -1 1 C-0.67 0.67 -0.34 0.34 0 0 Z " fill="#39A89D" transform="translate(79,217)"/>
<path d="M0 0 C2.4375 1.0625 2.4375 1.0625 4 2 C4 2.66 4 3.32 4 4 C3.39671875 3.855625 2.7934375 3.71125 2.171875 3.5625 C1.37265625 3.376875 0.5734375 3.19125 -0.25 3 C-1.03890625 2.814375 -1.8278125 2.62875 -2.640625 2.4375 C-5.25556002 1.87845172 -5.25556002 1.87845172 -9 2 C-9 1.34 -9 0.68 -9 0 C-5.88094953 -1.55952523 -3.35318513 -0.6359489 0 0 Z " fill="#37ABA4" transform="translate(109,195)"/>
<path d="M0 0 C3.3 0 6.6 0 10 0 C10.33 1.32 10.66 2.64 11 4 C6.00837213 3.52003578 4.14964417 3.11223313 0 0 Z " fill="#29AB9F" transform="translate(121,179)"/>
<path d="M0 0 C2.31 0.33 4.62 0.66 7 1 C6.67 1.99 6.34 2.98 6 4 C7.37168238 6.19038423 7.37168238 6.19038423 9 8 C4.7257442 6.4169423 2.73468206 3.49431596 0 0 Z " fill="#28AA9A" transform="translate(112,171)"/>
<path d="M0 0 C0.99 0.495 0.99 0.495 2 1 C2 1.66 2 2.32 2 3 C2.66 3 3.32 3 4 3 C5.625 5 5.625 5 7 7 C6.01 7.99 5.02 8.98 4 10 C3.32845067 8.71086513 2.66291141 7.41859796 2 6.125 C1.62875 5.40570313 1.2575 4.68640625 0.875 3.9453125 C0 2 0 2 0 0 Z " fill="#2DA299" transform="translate(165,92)"/>
<path d="M0 0 C0.33 0.99 0.66 1.98 1 3 C2.32 2.67 3.64 2.34 5 2 C4.67 3.65 4.34 5.3 4 7 C3.01 7.33 2.02 7.66 1 8 C-0.42944945 5.64561267 -1.08661261 4.51967567 -0.625 1.75 C-0.41875 1.1725 -0.2125 0.595 0 0 Z " fill="#18AA97" transform="translate(125,214)"/>
<path d="M0 0 C0.66 0.33 1.32 0.66 2 1 C2 2.32 2 3.64 2 5 C-1.13349732 6.04449911 -1.98968256 5.93423645 -5 5 C-5 4.34 -5 3.68 -5 3 C-2.625 1.3125 -2.625 1.3125 0 0 Z " fill="#2B99B5" transform="translate(273,212)"/>
<path d="M0 0 C0.53625 0.7425 1.0725 1.485 1.625 2.25 C4.15264739 5.17674961 6.71827368 6.98621339 10 9 C9.01 9.33 8.02 9.66 7 10 C3.875 8.4375 3.875 8.4375 1 6 C0.125 2.75 0.125 2.75 0 0 Z " fill="#38A497" transform="translate(140,151)"/>
<path d="M0 0 C2.31 0 4.62 0 7 0 C7.33 1.32 7.66 2.64 8 4 C7.01 3.67 6.02 3.34 5 3 C5 2.34 5 1.68 5 1 C3.68 1 2.36 1 1 1 C0.67 1.99 0.34 2.98 0 4 C0 2.68 0 1.36 0 0 Z " fill="#418699" transform="translate(208,196)"/>
<path d="M0 0 C1.32 0.33 2.64 0.66 4 1 C3.34 2.98 2.68 4.96 2 7 C0.68 6.67 -0.64 6.34 -2 6 C-1.01 6 -0.02 6 1 6 C0.67 4.02 0.34 2.04 0 0 Z " fill="#4687A1" transform="translate(161,197)"/>
<path d="M0 0 C2.475 0.99 2.475 0.99 5 2 C4.67 2.66 4.34 3.32 4 4 C1.93359375 4.4140625 1.93359375 4.4140625 -0.5625 4.625 C-1.38878906 4.69976562 -2.21507812 4.77453125 -3.06640625 4.8515625 C-4.02353516 4.92503906 -4.02353516 4.92503906 -5 5 C-4.34 4.34 -3.68 3.68 -3 3 C-1.68 3 -0.36 3 1 3 C0.67 2.01 0.34 1.02 0 0 Z " fill="#3BA79F" transform="translate(183,88)"/>
<path d="M0 0 C1.65 0 3.3 0 5 0 C5.33 0.66 5.66 1.32 6 2 C5.01 3.485 5.01 3.485 4 5 C4 4.01 4 3.02 4 2 C2.68 2 1.36 2 0 2 C0 1.34 0 0.68 0 0 Z M-2 5 C-0.02 5 1.96 5 4 5 C4 5.33 4 5.66 4 6 C2.02 6 0.04 6 -2 6 C-2 5.67 -2 5.34 -2 5 Z " fill="#3188B6" transform="translate(180,204)"/>
<path d="M0 0 C0.99 0 1.98 0 3 0 C1.50164772 4.66154042 -1.88463591 5.86610751 -6 8 C-6 7.34 -6 6.68 -6 6 C-2.53846154 3 -2.53846154 3 0 3 C0 2.01 0 1.02 0 0 Z " fill="#35AB9C" transform="translate(252,173)"/>
<path d="M0 0 C0.66 0.33 1.32 0.66 2 1 C-2.75 5.875 -2.75 5.875 -5 7 C-5 5.68 -5 4.36 -5 3 C-4.34 3 -3.68 3 -3 3 C-3 2.34 -3 1.68 -3 1 C-2.01 0.67 -1.02 0.34 0 0 Z " fill="#22AD9D" transform="translate(177,91)"/>
<path d="M0 0 C2.31 0 4.62 0 7 0 C6.67 0.99 6.34 1.98 6 3 C6.66 3.33 7.32 3.66 8 4 C4.31245243 3.50168276 2.39509338 2.89932357 0 0 Z " fill="#368BA1" transform="translate(259,210)"/>
<path d="M0 0 C0.66 0 1.32 0 2 0 C2 1.32 2 2.64 2 4 C2.99 4 3.98 4 5 4 C5 4.66 5 5.32 5 6 C3.35 6 1.7 6 0 6 C0 4.02 0 2.04 0 0 Z " fill="#3B8DA8" transform="translate(154,197)"/>
<path d="M0 0 C2.95409701 1.37154504 5.44008376 2.98863724 8 5 C7.67 5.99 7.34 6.98 7 8 C6.67 7.34 6.34 6.68 6 6 C5.175 5.525625 4.35 5.05125 3.5 4.5625 C1 3 1 3 0 0 Z " fill="#438A9E" transform="translate(218,116)"/>
</svg>
